<?xml version="1.0" encoding="UTF-8" standalone="no"?>
<!DOCTYPE svg PUBLIC "-//W3C//DTD SVG 1.1//EN" "http://www.w3.org/Graphics/SVG/1.1/DTD/svg11.dtd">
<svg width="100%" height="100%" viewBox="0 0 1153 1025" version="1.1" xmlns="http://www.w3.org/2000/svg" xmlns:xlink="http://www.w3.org/1999/xlink" xml:space="preserve" xmlns:serif="http://www.serif.com/" style="fill-rule:evenodd;clip-rule:evenodd;stroke-linejoin:round;stroke-miterlimit:2;">
    <g transform="matrix(1,0,0,1,-4162,-4360)">
        <g transform="matrix(1,0,0,0.605618,0,2976.94)">
            <g id="Light-Sound" transform="matrix(2,0,0,3.30241,4738.78,3130.03)">
                <g transform="matrix(1,0,0,1,-288,-256)">
                    <path d="M215.03,71.05L126.06,160L24,160C10.74,160 0,170.74 0,184L0,328C0,341.25 10.74,352 24,352L126.06,352L215.03,440.95C230.06,455.98 256,445.42 256,423.98L256,88.02C256,66.56 230.04,56.04 215.03,71.05ZM448.35,19.97C437.18,12.64 422.17,15.73 414.84,26.92C407.5,38.09 410.62,53.1 421.79,60.43C488.06,103.92 527.61,177.03 527.61,256.01C527.61,334.99 488.06,408.1 421.79,451.59C410.62,458.91 407.5,473.93 414.84,485.09C421.88,495.8 436.77,499.65 448.35,492.04C528.27,439.58 576,351.33 576,256C576,160.67 528.27,72.43 448.35,19.97ZM480,256C480,192.47 447.94,134.06 394.23,99.76C383.04,92.62 368.2,95.94 361.11,107.22C354.02,118.5 357.33,133.43 368.52,140.58C408.27,165.97 432,209.11 432,256C432,302.89 408.27,346.03 368.52,371.42C357.33,378.56 354.02,393.49 361.11,404.78C367.62,415.14 382.23,419.92 394.23,412.24C447.94,377.94 480,319.54 480,256ZM338.23,179.13C326.65,172.8 312.04,176.97 305.62,188.58C299.23,200.19 303.46,214.78 315.07,221.19C327.98,228.28 336,241.63 336,256C336,270.38 327.98,283.72 315.08,290.81C303.47,297.22 299.24,311.81 305.63,323.42C312.06,335.08 326.68,339.22 338.24,332.87C366.47,317.32 384.01,287.87 384.01,255.99C384.01,224.11 366.47,194.67 338.23,179.13Z" style="fill:rgb(242,242,242);fill-rule:nonzero;"/>
                </g>
            </g>
        </g>
    </g>
</svg>
