<?xml version="1.0" encoding="UTF-8" standalone="no"?><!DOCTYPE svg PUBLIC "-//W3C//DTD SVG 1.1//EN" "http://www.w3.org/Graphics/SVG/1.1/DTD/svg11.dtd"><svg width="100%" height="100%" viewBox="0 0 1473 1102" version="1.1" xmlns="http://www.w3.org/2000/svg" xmlns:xlink="http://www.w3.org/1999/xlink" xml:space="preserve" xmlns:serif="http://www.serif.com/" style="fill-rule:evenodd;clip-rule:evenodd;stroke-linejoin:round;stroke-miterlimit:2;"><g><path d="M1142.62,135.696c-31.029,-31.042 -31.029,-81.384 0,-112.417c31.029,-31.033 81.404,-31.033 112.446,0c37.758,37.771 71.662,80.096 100.541,125.075c141.067,219.717 155.78,502.796 39.221,735.708c-36.421,72.75 -83.825,138.359 -139.804,194.33c-31.046,31.024 -81.379,31.024 -112.412,0c-31.029,-31.042 -31.029,-81.38 0,-112.425c44.945,-44.955 82.445,-96.517 110.579,-152.721c91.554,-182.838 79.591,-406.742 -31.104,-579.184c-22.9,-35.666 -49.517,-68.416 -79.467,-98.366Zm-1049.11,146.266l208.684,0l322.454,-258.916c15.429,-14.304 36.083,-23.046 58.787,-23.046c47.788,0 86.55,38.746 86.55,86.558l-0.237,928.783c0.008,19 -6.192,38.138 -19.033,54.096c-29.876,37.167 -84.23,43.063 -121.38,13.188l-327.416,-262.921l-208.409,0c-51.425,0 -93.512,-42.087 -93.512,-93.517l0,-350.7c0,-51.441 42.087,-93.525 93.512,-93.525Zm846.763,56.13c-31.025,-31.059 -31.025,-81.388 0,-112.421c31.046,-31.05 81.379,-31.05 112.433,0c23.267,23.246 44.192,49.445 61.954,77.129c87.08,135.767 95.809,309.625 24.025,453.471c-22.354,44.637 -51.62,85.066 -86.304,119.729c-31.046,30.858 -81.25,30.729 -112.133,-0.304c-30.842,-31.029 -30.721,-81.255 0.3,-112.104c22.891,-22.867 42.067,-49.234 56.542,-78.159c46.787,-93.612 40.666,-208.641 -15.967,-296.921c-11.767,-18.362 -25.421,-35 -40.85,-50.42Z" style="fill:none;"/><clipPath id="_clip1"><rect x="0" y="0" width="863.485" height="1101.68"/></clipPath><g clip-path="url(#_clip1)"><path d="M1142.62,135.696c-31.029,-31.042 -31.029,-81.384 0,-112.417c31.029,-31.033 81.404,-31.033 112.446,0c37.758,37.771 71.662,80.096 100.541,125.075c141.067,219.717 155.78,502.796 39.221,735.708c-36.421,72.75 -83.825,138.359 -139.804,194.33c-31.046,31.024 -81.379,31.024 -112.412,0c-31.029,-31.042 -31.029,-81.38 0,-112.425c44.945,-44.955 82.445,-96.517 110.579,-152.721c91.554,-182.838 79.591,-406.742 -31.104,-579.184c-22.9,-35.666 -49.517,-68.416 -79.467,-98.366Zm-1049.11,146.266l208.684,0l322.454,-258.916c15.429,-14.304 36.083,-23.046 58.787,-23.046c47.788,0 86.55,38.746 86.55,86.558l-0.237,928.783c0.008,19 -6.192,38.138 -19.033,54.096c-29.876,37.167 -84.23,43.063 -121.38,13.188l-327.416,-262.921l-208.409,0c-51.425,0 -93.512,-42.087 -93.512,-93.517l0,-350.7c0,-51.441 42.087,-93.525 93.512,-93.525Zm846.763,56.13c-31.025,-31.059 -31.025,-81.388 0,-112.421c31.046,-31.05 81.379,-31.05 112.433,0c23.267,23.246 44.192,49.445 61.954,77.129c87.08,135.767 95.809,309.625 24.025,453.471c-22.354,44.637 -51.62,85.066 -86.304,119.729c-31.046,30.858 -81.25,30.729 -112.133,-0.304c-30.842,-31.029 -30.721,-81.255 0.3,-112.104c22.891,-22.867 42.067,-49.234 56.542,-78.159c46.787,-93.612 40.666,-208.641 -15.967,-296.921c-11.767,-18.362 -25.421,-35 -40.85,-50.42Z" style="fill:#fff;"/></g></g></svg>