<?xml version="1.0" encoding="UTF-8" standalone="no"?><!DOCTYPE svg PUBLIC "-//W3C//DTD SVG 1.1//EN" "http://www.w3.org/Graphics/SVG/1.1/DTD/svg11.dtd"><svg width="100%" height="100%" viewBox="0 0 1097 1102" version="1.1" xmlns="http://www.w3.org/2000/svg" xmlns:xlink="http://www.w3.org/1999/xlink" xml:space="preserve" xmlns:serif="http://www.serif.com/" style="fill-rule:evenodd;clip-rule:evenodd;stroke-linejoin:round;stroke-miterlimit:2;"><path d="M294.024,310.691c58.458,-61.317 135.125,-97.029 214.729,-105.483c190.787,-20.284 362.171,118.162 382.458,308.95c20.283,190.787 -118.146,362.162 -308.937,382.437c-141.071,14.988 -276.492,-57.821 -342.671,-180.225c-21.025,-38.879 -34.479,-81.758 -39.55,-125.679c-1.942,-16.971 -18.292,-28.471 -34.813,-24.921l-142.504,30.625c-15.096,3.254 -24.833,18.029 -22.35,33.142c5.346,37.125 14.479,73.487 27.196,108.775c85.212,236.35 323.225,387.275 576.187,360.367c302.15,-32.13 521.663,-303.896 489.525,-606.038c-32.137,-302.142 -303.895,-521.658 -606.041,-489.517c-131.184,13.954 -257.446,74.83 -351.496,179.721l-71.371,-57.654c-12.396,-10.012 -30.562,-8.083 -40.571,4.317c-4.112,5.1 -6.429,11.5 -6.442,18.058l0,306.346c-0.041,18.871 18.138,32.579 35.942,28.092l298.567,-64.234c15.592,-3.383 25.479,-18.775 22.092,-34.358c-1.55,-7.146 -5.63,-13.071 -11.088,-17.092l-68.862,-55.629Z" style="fill:#fff;"/></svg>