<?xml version="1.0" encoding="UTF-8" standalone="no"?><!DOCTYPE svg PUBLIC "-//W3C//DTD SVG 1.1//EN" "http://www.w3.org/Graphics/SVG/1.1/DTD/svg11.dtd"><svg width="100%" height="100%" viewBox="0 0 7538 7538" version="1.1" xmlns="http://www.w3.org/2000/svg" xmlns:xlink="http://www.w3.org/1999/xlink" xml:space="preserve" xmlns:serif="http://www.serif.com/" style="fill-rule:evenodd;clip-rule:evenodd;stroke-linejoin:round;stroke-miterlimit:2;"><g id="Do-not-Disturb" serif:id="Do not Disturb"><path d="M7537.5,7537.5c-4.417,-14.083 4.958,-7537.5 0,-7537.5l-7537.5,0c-0.263,4.696 0,7537.5 0,7537.5c9.388,4.958 7537.5,0 7537.5,0Z" style="fill:#ddd;fill-opacity:0.6;"/></g><path d="M4931.92,5496.63c1630.55,485.772 2818.24,1966.99 2818.24,3716.83c-0,2144.41 -1783.7,3885.4 -3980.72,3885.4c-2197.02,0 -3980.72,-1740.99 -3980.72,-3885.4c0,-1749.84 1187.69,-3231.06 2818.24,-3716.83c173.997,165.233 629.073,283.241 1162.48,283.241c533.408,0 988.484,-118.008 1162.48,-283.241Z" style="fill:#575757;"/><circle cx="3768.75" cy="2828.13" r="2376.83" style="fill:#575757;"/></svg>