<?xml version="1.0" encoding="UTF-8" standalone="no"?><!DOCTYPE svg PUBLIC "-//W3C//DTD SVG 1.1//EN" "http://www.w3.org/Graphics/SVG/1.1/DTD/svg11.dtd"><svg width="100%" height="100%" viewBox="0 0 7538 7538" version="1.1" xmlns="http://www.w3.org/2000/svg" xmlns:xlink="http://www.w3.org/1999/xlink" xml:space="preserve" xmlns:serif="http://www.serif.com/" style="fill-rule:evenodd;clip-rule:evenodd;stroke-linejoin:round;stroke-miterlimit:2;"><g id="Do-not-Disturb" serif:id="Do not Disturb"><path d="M7537.5,7537.5c-4.417,-14.083 4.958,-7537.5 0,-7537.5l-7537.5,0c-0.263,4.696 0,7537.5 0,7537.5c9.388,4.958 7537.5,0 7537.5,0Z" style="fill:#ddd;fill-opacity:0.6;"/></g><path d="M5640.51,4369.26l278.828,-730.319c46.665,-122.498 -43.166,-253.162 -174.997,-253.162l-682.487,0c128.331,-220.496 207.663,-473.657 207.663,-746.652l-0,-3.5c457.324,-90.998 746.652,-222.829 746.652,-369.826c0,-155.164 -318.494,-292.828 -817.817,-384.993c-107.332,-382.659 -314.994,-767.651 -473.658,-965.981c-110.831,-138.83 -302.161,-181.996 -460.824,-102.664l-321.994,160.996c-104.998,52.499 -228.662,52.499 -333.66,0l-321.994,-160.996c-158.663,-79.332 -349.993,-36.166 -460.824,102.664c-157.497,198.33 -366.326,583.322 -473.658,965.981c-498.157,92.165 -816.65,229.829 -816.65,384.993c-0,146.997 289.327,278.828 746.652,369.826l-0,3.5c-0,272.995 79.332,526.156 207.662,746.652l-670.82,0c-134.164,0 -223.996,136.498 -171.497,260.162l300.995,702.319c-467.825,271.829 -786.319,772.319 -786.319,1352.14l0,522.656c0,288.161 234.496,522.657 522.657,522.657l4181.25,-0c288.161,-0 522.657,-234.496 522.657,-522.657l-0,-522.656c-0,-564.656 -300.995,-1054.65 -747.819,-1331.14Zm-2425.45,2003.13l-485.324,-2239.96l578.655,373.326l279.995,466.658l-373.326,1399.97Zm1119.98,-0l-373.326,-1399.97l279.995,-466.658l578.655,-373.326l-485.324,2239.96Zm486.491,-3482.43c-45.499,138.831 -81.665,286.995 -192.497,389.66c-117.831,108.497 -559.989,261.328 -746.652,-291.661c-32.666,-97.999 -179.663,-97.999 -213.496,-0c-198.329,585.655 -653.32,377.992 -746.652,291.661c-110.831,-102.665 -148.164,-250.829 -192.496,-389.66c-9.333,-29.166 -73.499,-66.498 -73.499,-67.665l0,-125.997c330.161,41.999 711.653,67.665 1119.98,67.665c408.325,-0 789.818,-24.5 1119.98,-67.665l-0,125.997c-1.167,1.167 -65.332,37.333 -74.665,67.665Z" style="fill-rule:nonzero;"/></svg>