<?xml version="1.0" encoding="UTF-8" standalone="no"?><!DOCTYPE svg PUBLIC "-//W3C//DTD SVG 1.1//EN" "http://www.w3.org/Graphics/SVG/1.1/DTD/svg11.dtd"><svg width="100%" height="100%" viewBox="0 0 1809 1809" version="1.1" xmlns="http://www.w3.org/2000/svg" xmlns:xlink="http://www.w3.org/1999/xlink" xml:space="preserve" xmlns:serif="http://www.serif.com/" style="fill-rule:evenodd;clip-rule:evenodd;stroke-linejoin:round;stroke-miterlimit:2;"><g id="Do-not-Disturb" serif:id="Do not Disturb"><path d="M1804.91,208.333c0,-114.983 -93.35,-208.333 -208.333,-208.333l-1388.24,0c-114.983,0 -208.333,93.35 -208.333,208.333l0,1388.24c0,114.983 93.35,208.333 208.333,208.333l1388.24,0c114.983,0 208.333,-93.35 208.333,-208.333l0,-1388.24Z" style="fill:#ddd;fill-opacity:0.6;"/></g><path id="Radio-Wave" serif:id="Radio Wave" d="M1075.32,1171.1c-12.671,0.009 -25.038,-6.296 -32.213,-17.712c-11.012,-17.625 -5.625,-40.775 12.184,-51.759c52.962,-32.75 87.179,-102.054 87.129,-176.5c-0.05,-74.491 -34.363,-143.704 -87.371,-176.429c-17.821,-10.908 -23.242,-34.05 -12.25,-51.692c10.988,-17.541 34.35,-23.17 52.121,-12.108c75.875,46.738 123.125,138.733 123.196,240.179c0.066,101.396 -47.054,193.454 -122.871,240.346c-6.254,3.863 -13.113,5.671 -19.925,5.675Zm106.35,155.104c-13.225,0.013 -26.146,-6.541 -33.621,-18.462c-11.521,-18.375 -5.837,-42.575 12.675,-54.013c101.138,-62.437 163.879,-188.425 163.783,-328.746c-0.091,-140.316 -63.008,-266.166 -164.229,-328.47c-18.529,-11.459 -24.246,-35.6 -12.754,-54.046c11.496,-18.342 35.763,-23.917 54.392,-12.609c124.191,76.513 201.404,227.9 201.516,395.076c0.117,167.17 -76.891,318.716 -200.979,395.395c-6.504,3.963 -13.666,5.871 -20.783,5.875Zm133.608,165.709c-13.216,0.012 -26.141,-6.542 -33.621,-18.463c-11.516,-18.375 -5.829,-42.575 12.684,-54.012c152.737,-94.384 247.529,-283.863 247.383,-494.571c-0.142,-210.704 -95.192,-400.154 -248.058,-494.334c-18.525,-11.408 -24.246,-35.55 -12.754,-53.995c11.491,-18.392 35.762,-23.971 54.391,-12.663c175.888,108.392 285.234,323.279 285.396,560.938c0.163,237.558 -108.892,452.595 -284.629,561.225c-6.508,3.962 -13.675,5.87 -20.792,5.875Zm-303.404,-566.705c0.038,51.7 -42.171,93.659 -94.25,93.696c-52.079,0.034 -94.346,-41.866 -94.379,-93.566c-0.038,-51.7 42.171,-93.659 94.25,-93.696c52.079,-0.034 94.346,41.866 94.379,93.566Zm-256.537,246.109c-6.813,0.004 -13.675,-1.792 -19.934,-5.646c-75.879,-46.788 -123.129,-138.783 -123.196,-240.179c-0.07,-101.446 47.055,-193.504 122.867,-240.346c17.808,-11.083 41.175,-5.492 52.138,12.037c11.012,17.625 5.625,40.775 -12.18,51.709c-52.966,32.796 -87.183,102.054 -87.133,176.546c0.054,74.445 34.363,143.704 87.371,176.383c17.825,10.958 23.242,34.1 12.254,51.742c-7.158,11.425 -19.517,17.745 -32.187,17.754Zm-106.138,155.25c-7.117,0.008 -14.283,-1.892 -20.792,-5.846c-124.191,-76.513 -201.408,-227.95 -201.52,-395.125c-0.113,-167.171 76.891,-318.667 200.979,-395.346c18.512,-11.387 42.837,-5.842 54.408,12.538c11.517,18.425 5.833,42.575 -12.679,54.062c-101.138,62.438 -163.879,188.375 -163.783,328.692c0.095,140.321 63.008,266.221 164.233,328.525c18.525,11.408 24.242,35.6 12.75,53.991c-7.463,11.93 -20.371,18.5 -33.596,18.509Zm-133.387,165.891c-7.113,0.005 -14.284,-1.891 -20.796,-5.845c-175.884,-108.392 -285.234,-323.28 -285.396,-560.838c-0.163,-237.658 108.896,-452.696 284.629,-561.325c18.567,-11.383 42.846,-5.792 54.413,12.588c11.516,18.429 5.829,42.579 -12.684,54.012c-152.733,94.388 -247.525,283.967 -247.383,494.671c0.146,210.708 95.196,400.058 248.058,494.233c18.529,11.413 24.25,35.604 12.754,53.996c-7.458,11.929 -20.375,18.5 -33.595,18.508Z"/></svg>