<?xml version="1.0" encoding="UTF-8" standalone="no"?><!DOCTYPE svg PUBLIC "-//W3C//DTD SVG 1.1//EN" "http://www.w3.org/Graphics/SVG/1.1/DTD/svg11.dtd"><svg width="100%" height="100%" viewBox="0 0 7538 7538" version="1.1" xmlns="http://www.w3.org/2000/svg" xmlns:xlink="http://www.w3.org/1999/xlink" xml:space="preserve" xmlns:serif="http://www.serif.com/" style="fill-rule:evenodd;clip-rule:evenodd;stroke-linejoin:round;stroke-miterlimit:2;"><g id="Do-not-Disturb" serif:id="Do not Disturb"><path d="M7537.5,7537.5c-4.417,-14.083 4.958,-7537.5 0,-7537.5l-7537.5,0c-0.263,4.696 0,7537.5 0,7537.5c9.388,4.958 7537.5,0 7537.5,0Z" style="fill:#ddd;fill-opacity:0.6;"/></g><path d="M4778.88,5498.26c1415.89,421.822 2447.22,1708.04 2447.22,3227.52c0,1862.11 -1548.88,3373.9 -3456.67,3373.9c-1907.79,0 -3456.67,-1511.79 -3456.67,-3373.9c-0,-1519.48 1031.33,-2805.7 2447.22,-3227.52c151.091,143.48 546.258,245.953 1009.44,245.953c463.187,-0 858.353,-102.473 1009.45,-245.953Z"/><circle cx="3768.84" cy="3181.06" r="2063.93"/></svg>