<?xml version="1.0" encoding="UTF-8" standalone="no"?><!DOCTYPE svg PUBLIC "-//W3C//DTD SVG 1.1//EN" "http://www.w3.org/Graphics/SVG/1.1/DTD/svg11.dtd"><svg width="100%" height="100%" viewBox="0 0 434 434" version="1.1" xmlns="http://www.w3.org/2000/svg" xmlns:xlink="http://www.w3.org/1999/xlink" xml:space="preserve" xmlns:serif="http://www.serif.com/" style="fill-rule:evenodd;clip-rule:evenodd;stroke-linejoin:round;stroke-miterlimit:2;"><g id="Do-not-Disturb" serif:id="Do not Disturb"><path d="M433.178,50c0,-27.596 -22.404,-50 -50,-50l-333.178,0c-27.596,0 -50,22.404 -50,50l0,333.178c0,27.596 22.404,50 50,50l333.178,0c27.596,0 50,-22.404 50,-50l0,-333.178Z" style="fill-opacity:1.0;"/></g><path id="Radio-Wave" serif:id="Radio Wave" d="M258.077,281.065c-3.041,0.002 -6.009,-1.511 -7.731,-4.251c-2.643,-4.23 -1.35,-9.786 2.924,-12.422c12.711,-7.86 20.923,-24.493 20.911,-42.36c-0.012,-17.878 -8.247,-34.489 -20.969,-42.343c-4.277,-2.618 -5.578,-8.172 -2.94,-12.406c2.637,-4.21 8.244,-5.561 12.509,-2.906c18.21,11.217 29.55,33.296 29.567,57.643c0.016,24.335 -11.293,46.429 -29.489,57.683c-1.501,0.927 -3.147,1.361 -4.782,1.362Zm25.524,37.225c-3.174,0.003 -6.275,-1.57 -8.069,-4.431c-2.765,-4.41 -1.401,-10.218 3.042,-12.963c24.273,-14.985 39.331,-45.222 39.308,-78.899c-0.022,-33.676 -15.122,-63.88 -39.415,-78.833c-4.447,-2.75 -5.819,-8.544 -3.061,-12.971c2.759,-4.402 8.583,-5.74 13.054,-3.026c29.806,18.363 48.337,54.696 48.364,94.818c0.028,40.121 -18.454,76.492 -48.235,94.895c-1.561,0.951 -3.28,1.409 -4.988,1.41Zm32.066,39.77c-3.172,0.003 -6.274,-1.57 -8.069,-4.431c-2.764,-4.41 -1.399,-10.218 3.044,-12.963c36.657,-22.652 59.407,-68.127 59.372,-118.697c-0.034,-50.569 -22.846,-96.037 -59.534,-118.64c-4.446,-2.738 -5.819,-8.532 -3.061,-12.959c2.758,-4.414 8.583,-5.753 13.054,-3.039c42.213,26.014 68.456,77.587 68.495,134.625c0.039,57.014 -26.134,108.623 -68.311,134.694c-1.562,0.951 -3.282,1.409 -4.99,1.41Zm-72.817,-136.009c0.009,12.408 -10.121,22.478 -22.62,22.487c-12.499,0.008 -22.643,-10.048 -22.651,-22.456c-0.009,-12.408 10.121,-22.478 22.62,-22.487c12.499,-0.008 22.643,10.048 22.651,22.456Zm-61.569,59.066c-1.635,0.001 -3.282,-0.43 -4.784,-1.355c-18.211,-11.229 -29.551,-33.308 -29.567,-57.643c-0.017,-24.347 11.293,-46.441 29.488,-57.683c4.274,-2.66 9.882,-1.318 12.513,2.889c2.643,4.23 1.35,9.786 -2.923,12.41c-12.712,7.871 -20.924,24.493 -20.912,42.371c0.013,17.867 8.247,34.489 20.969,42.332c4.278,2.63 5.578,8.184 2.941,12.418c-1.718,2.742 -4.684,4.259 -7.725,4.261Zm-25.473,37.26c-1.708,0.002 -3.428,-0.454 -4.99,-1.403c-29.806,-18.363 -48.338,-54.708 -48.365,-94.83c-0.027,-40.121 18.454,-76.48 48.235,-94.883c4.443,-2.733 10.281,-1.402 13.058,3.009c2.764,4.422 1.4,10.218 -3.043,12.975c-24.273,14.985 -39.331,45.21 -39.308,78.886c0.023,33.677 15.122,63.893 39.416,78.846c4.446,2.738 5.818,8.544 3.06,12.958c-1.791,2.863 -4.889,4.44 -8.063,4.442Zm-32.013,39.814c-1.707,0.001 -3.428,-0.454 -4.991,-1.403c-42.212,-26.014 -68.456,-77.587 -68.495,-134.601c-0.039,-57.038 26.135,-108.647 68.311,-134.718c4.456,-2.732 10.283,-1.39 13.059,3.021c2.764,4.423 1.399,10.219 -3.044,12.963c-36.656,22.653 -59.406,68.152 -59.372,118.721c0.035,50.57 22.847,96.014 59.534,118.616c4.447,2.739 5.82,8.545 3.061,12.959c-1.79,2.863 -4.89,4.44 -8.063,4.442Z"/></svg>