<?xml version="1.0" encoding="UTF-8" standalone="no"?><!DOCTYPE svg PUBLIC "-//W3C//DTD SVG 1.1//EN" "http://www.w3.org/Graphics/SVG/1.1/DTD/svg11.dtd"><svg width="100%" height="100%" viewBox="0 0 7538 7538" version="1.1" xmlns="http://www.w3.org/2000/svg" xmlns:xlink="http://www.w3.org/1999/xlink" xml:space="preserve" xmlns:serif="http://www.serif.com/" style="fill-rule:evenodd;clip-rule:evenodd;stroke-linejoin:round;stroke-miterlimit:2;"><g id="Do-not-Disturb" serif:id="Do not Disturb"><path d="M7537.5,7537.5c-4.417,-14.083 4.958,-7537.5 0,-7537.5l-7537.5,0c-0.263,4.696 0,7537.5 0,7537.5c9.388,4.958 7537.5,0 7537.5,0Z" style="fill:#ddd;fill-opacity:0.6;"/></g><path id="Calendar" d="M5529.81,724.038c44.016,0.837 87.903,3.323 131.654,8.332c101.105,11.575 200.794,35.147 296.349,70.16c185.857,68.102 355.065,179.447 491.632,322.682c125.909,132.058 223.49,290.561 284.162,462.667c32.079,90.996 53.839,185.587 64.806,281.446c5.005,43.746 7.49,87.627 8.326,131.638c7.366,1132.32 7.366,2264.72 -0,3397.04c-0.836,44.011 -3.322,87.892 -8.326,131.638c-10.967,95.858 -32.728,190.449 -64.806,281.445c-60.671,172.106 -158.253,330.611 -284.162,462.668c-136.569,143.235 -305.773,254.575 -491.63,322.68c-95.554,35.015 -195.246,58.587 -296.351,70.161c-43.751,5.009 -87.639,7.496 -131.655,8.333c-1132.32,7.157 -2264.7,7.157 -3397.02,0c-44.015,-0.837 -87.901,-3.325 -131.651,-8.332c-101.105,-11.571 -200.808,-35.142 -296.359,-70.167c-166.365,-60.981 -319.521,-156.546 -447.748,-278.801c-147.078,-140.227 -260.466,-314.854 -328.04,-506.542c-32.078,-90.994 -53.83,-185.589 -64.797,-281.445c-5.005,-43.747 -7.499,-87.626 -8.334,-131.638c-7.367,-1132.32 -7.367,-2264.72 -0,-3397.04c0.835,-44.013 3.329,-87.891 8.334,-131.638c10.967,-95.856 32.719,-190.452 64.797,-281.446c67.575,-191.687 180.962,-366.318 328.041,-506.542c128.229,-122.253 281.383,-217.823 447.749,-278.802c95.552,-35.022 195.252,-58.594 296.357,-70.165c43.75,-5.008 87.635,-7.495 131.65,-8.332c1132.32,-7.178 2264.7,-7.178 3397.02,-0Zm1021.11,1811.1l-5439.25,0c-4.259,953.188 -3.288,1906.4 2.913,2859.57c0.752,39.649 3.247,79.159 8.246,118.511c9.163,72.126 26.015,143.273 50.187,211.843c54.072,153.388 144.873,293.093 262.559,405.295c102.606,97.825 225.128,174.335 358.253,223.134c76.324,27.978 155.968,46.794 236.729,56.037c35.062,4.013 70.233,6.003 105.507,6.674c1130.13,7.143 2260.33,7.143 3390.47,0c35.272,-0.67 70.442,-2.66 105.502,-6.674c80.773,-9.247 160.416,-28.069 236.755,-56.042c148.733,-54.501 284.103,-143.665 393.389,-258.284c100.735,-105.65 178.86,-232.441 227.401,-370.14c25.626,-72.692 43.003,-148.254 51.764,-224.83c4.011,-35.068 6,-70.244 6.669,-105.524c6.201,-953.164 7.172,-1906.38 2.913,-2859.57Zm-4789.57,2716.8c142.805,-0 258.744,115.939 258.744,258.743c-0,142.804 -115.939,258.743 -258.744,258.743c-142.804,0 -258.743,-115.939 -258.743,-258.743c0,-142.804 115.939,-258.743 258.743,-258.743Zm3104.92,-0c142.805,-0 258.744,115.939 258.744,258.743c-0,142.804 -115.939,258.743 -258.744,258.743c-142.804,0 -258.743,-115.939 -258.743,-258.743c0,-142.804 115.939,-258.743 258.743,-258.743Zm-2069.95,-0c142.804,-0 258.743,115.939 258.743,258.743c0,142.804 -115.939,258.743 -258.743,258.743c-142.804,0 -258.743,-115.939 -258.743,-258.743c-0,-142.804 115.939,-258.743 258.743,-258.743Zm3104.92,-0c142.804,-0 258.743,115.939 258.743,258.743c0,142.804 -115.939,258.743 -258.743,258.743c-142.804,0 -258.743,-115.939 -258.743,-258.743c-0,-142.804 115.939,-258.743 258.743,-258.743Zm-2069.95,-0c142.804,-0 258.743,115.939 258.743,258.743c-0,142.804 -115.939,258.743 -258.743,258.743c-142.805,-0 -258.743,-115.939 -258.743,-258.743c-0,-142.804 115.938,-258.743 258.743,-258.743Zm1034.97,-1293.72c285.609,-0 517.487,231.878 517.487,517.486c-0,285.609 -231.878,517.487 -517.487,517.487c-285.608,-0 -517.486,-231.878 -517.486,-517.487c0,-285.608 231.878,-517.486 517.486,-517.486Zm-2069.95,258.743c142.804,0 258.743,115.939 258.743,258.743c0,142.804 -115.939,258.743 -258.743,258.743c-142.804,0 -258.743,-115.939 -258.743,-258.743c-0,-142.804 115.939,-258.743 258.743,-258.743Zm3104.92,0c142.804,0 258.743,115.939 258.743,258.743c0,142.804 -115.939,258.743 -258.743,258.743c-142.804,0 -258.743,-115.939 -258.743,-258.743c-0,-142.804 115.939,-258.743 258.743,-258.743Zm-4139.89,0c142.805,0 258.744,115.939 258.744,258.743c-0,142.804 -115.939,258.743 -258.744,258.743c-142.804,0 -258.743,-115.939 -258.743,-258.743c0,-142.804 115.939,-258.743 258.743,-258.743Zm2069.95,0c142.804,0 258.743,115.939 258.743,258.743c-0,142.804 -115.939,258.743 -258.743,258.743c-142.805,0 -258.743,-115.939 -258.743,-258.743c-0,-142.804 115.938,-258.743 258.743,-258.743Zm-1034.97,-1034.97c142.804,0 258.743,115.939 258.743,258.744c0,142.804 -115.939,258.743 -258.743,258.743c-142.804,-0 -258.743,-115.939 -258.743,-258.743c-0,-142.805 115.939,-258.744 258.743,-258.744Zm3104.92,0c142.804,0 258.743,115.939 258.743,258.744c0,142.804 -115.939,258.743 -258.743,258.743c-142.804,-0 -258.743,-115.939 -258.743,-258.743c-0,-142.805 115.939,-258.744 258.743,-258.744Zm-1034.97,0c142.805,0 258.744,115.939 258.744,258.744c-0,142.804 -115.939,258.743 -258.744,258.743c-142.804,-0 -258.743,-115.939 -258.743,-258.743c0,-142.805 115.939,-258.744 258.743,-258.744Zm-3104.92,0c142.805,0 258.744,115.939 258.744,258.744c-0,142.804 -115.939,258.743 -258.744,258.743c-142.804,-0 -258.743,-115.939 -258.743,-258.743c0,-142.805 115.939,-258.744 258.743,-258.744Zm2069.95,0c142.804,0 258.743,115.939 258.743,258.744c-0,142.804 -115.939,258.743 -258.743,258.743c-142.805,-0 -258.743,-115.939 -258.743,-258.743c-0,-142.805 115.938,-258.744 258.743,-258.744Z"/></svg>