<?xml version="1.0" encoding="UTF-8" standalone="no"?>
<!DOCTYPE svg PUBLIC "-//W3C//DTD SVG 1.1//EN" "http://www.w3.org/Graphics/SVG/1.1/DTD/svg11.dtd">
<svg width="100%" height="100%" viewBox="0 0 201 201" version="1.1" xmlns="http://www.w3.org/2000/svg" xmlns:xlink="http://www.w3.org/1999/xlink" xml:space="preserve" xmlns:serif="http://www.serif.com/" style="fill-rule:evenodd;clip-rule:evenodd;stroke-linejoin:round;stroke-miterlimit:2;">
    <g transform="matrix(1,0,0,1,-919,-250)">
        <g transform="matrix(0.525965,0,0,0.305066,0,0)">
            <g id="Breaker" transform="matrix(0.371341,0,0,0.640231,1526.63,1225.97)">
                <g id="podcastAppButton-podcastAppButton_Trace_2" transform="matrix(10.24,0,0,10.24,363.461,-746.46)">
                    <path d="M120.98,97.68L120.96,97.72C119.56,101.03 117.34,103.92 114.51,106.13L114.5,106.14C112.39,107.79 109.98,109.02 107.4,109.76L107.57,109.71C103.64,110.69 99.59,111.11 95.53,110.97L50.48,110.97C46.42,111.11 42.37,110.69 38.43,109.71L38.3,109.67C32.2,107.8 27.27,103.28 24.88,97.37L24.91,97.38C23.43,92.81 22.79,88 23.05,83.2L23.03,83.51L23.03,38.54L23.04,38.8C22.79,34.01 23.42,29.22 24.9,24.66L25.03,24.31C27.52,18.44 32.53,14.01 38.65,12.25L38.54,12.29C42.47,11.3 46.53,10.88 50.58,11.02L95.53,11.02C99.59,10.87 103.64,11.3 107.57,12.28L107.71,12.32C113.8,14.19 118.73,18.71 121.12,24.62L121.1,24.62C122.58,29.19 123.22,33.99 122.96,38.79L122.98,83.53L122.99,83.85C123.16,88.65 122.44,93.43 120.88,97.96L120.98,97.68Z" style="fill:url(#_Linear1);fill-rule:nonzero;"/>
                </g>
                <g transform="matrix(1,0,0,1,598.628,-633.431)">
                    <path d="M440.182,684.942C466.349,764.95 508.335,837.733 562.668,899.526C664.402,886.355 753.865,834.059 815.471,758.221C765.244,771.476 712.502,778.537 658.11,778.537C614.604,778.537 572.152,773.913 531.199,765.322C488.48,756.647 453.887,725.599 440.182,684.942Z" style="fill:rgb(18,105,255);fill-rule:nonzero;"/>
                    <path d="M512,902.781C529.171,902.781 546.082,901.674 562.668,899.527C508.335,837.733 466.349,764.95 440.183,684.943C436.065,672.727 433.833,659.644 433.833,646.04C433.833,615.502 445.079,587.591 463.655,566.222C392.561,645.693 341.798,743.758 319.614,852.222C376.409,884.407 442.059,902.781 512,902.781Z" style="fill:rgb(92,157,255);fill-rule:nonzero;"/>
                    <path d="M132.065,603.815C157.684,710.21 226.833,799.644 319.614,852.223C341.828,743.613 392.671,645.43 463.915,565.903C486.225,540.417 519.019,524.321 555.552,524.321C563.66,524.321 571.582,525.114 579.246,526.626C538.497,518.124 496.267,513.542 452.993,513.542C335.387,513.542 225.491,546.553 132.065,603.815Z" style="fill:rgb(158,198,255);fill-rule:nonzero;"/>
                    <path d="M579.246,526.626C538.497,518.124 496.267,513.542 452.993,513.542C335.387,513.542 225.491,546.553 132.065,603.815C124.975,574.369 121.219,543.623 121.219,512C121.219,390.134 177.003,281.296 264.429,209.63C456.055,267.483 608.048,416.631 670.497,606.22C671.079,607.888 671.626,609.572 672.137,611.271C671.597,609.584 671.051,607.9 670.497,606.22C656.441,565.939 621.833,535.029 579.246,526.626Z" style="fill:rgb(209,227,255);fill-rule:nonzero;"/>
                    <path d="M883.522,441.505C883.522,268.562 739.422,121.219 511.979,121.219C418.018,121.219 331.803,154.38 264.398,209.637C457.746,268.041 610.788,419.138 672.116,611.271C675.692,622.512 678.953,634.477 681.89,645.989C792.999,643.534 883.522,553.173 883.522,441.505Z" style="fill:white;fill-rule:nonzero;"/>
                    <path d="M663.143,650.742C660.285,639.532 655.732,623.224 652.266,612.308C640.347,578.427 611.177,552.515 575.526,545.481C568.762,544.124 562.702,543.516 555.552,543.539C524.787,543.539 497.19,557.069 478.375,578.561C461.81,597.33 452.695,619.319 453.052,646.04C452.983,658.023 454.7,668.027 458.394,678.804C469.935,713.04 499.219,739.217 535.145,746.512C575.169,754.933 615.646,759.348 658.111,759.319C711.224,759.362 761.51,752.625 810.567,739.639L826.397,735.462L834.61,765.142L830.388,770.34C765.783,849.869 671.923,904.761 565.136,918.587C547.945,920.802 529.799,921.99 512,922C439.444,921.822 369.027,902.152 310.139,868.943C212.826,813.797 140.271,719.99 113.381,608.314C106.063,577.789 102.036,544.791 102,512C102,384.133 160.557,269.926 252.245,194.767C322.169,137.761 414.531,102.323 512,102C748.204,102 902.762,256.196 902.762,441.505C902.762,563.905 803.573,662.609 682.177,665.206L666.917,665.533L663.143,650.742ZM688.812,600.393C629.299,413.947 487.608,269.621 305.291,203.002C364.547,162.812 434.45,140.161 512,140.438C730.601,140.438 864.324,280.877 864.324,441.505C864.324,537.508 790.273,616.398 696.284,625.868C693.817,616.948 691.08,607.531 688.812,600.393ZM140.438,512C140.438,399.821 190.129,299.263 268.766,231.107C418.305,279.032 540.856,381.346 612.388,517.068C603.103,512.952 593.287,509.814 583.067,507.79C541.425,499.133 497.267,494.351 452.993,494.323C342.293,494.511 236.198,523.677 145.503,573.781C142.117,553.73 140.413,533.347 140.438,512ZM471.315,533.027C463.353,538.967 456.042,545.727 449.511,553.178C382.778,628.014 332.336,721.044 306.867,821.856C233.656,773.287 178.667,699.478 154.296,612.899C242.637,561.367 343.26,532.565 452.993,532.76C459.141,532.756 465.246,532.845 471.315,533.027ZM512,883.562C449.69,883.728 392.899,869.112 341.42,842.232C356.24,777.076 381.476,716.637 415.6,661.942C416.777,672.024 418.964,682 421.916,690.917C444.829,760.695 480.122,826.325 524.422,883.371C520.325,883.502 516.19,883.566 512,883.562ZM570.324,879.014C543.027,846.96 519.355,812.404 499.523,775.397C508.353,779.226 517.653,782.178 527.316,784.144C569.179,792.899 613.584,797.728 658.111,797.757C692.113,797.73 725.939,794.966 758.83,789.735C706.927,835.899 642.022,867.714 570.324,879.014Z" style="fill:rgb(0,61,173);"/>
                </g>
            </g>
        </g>
    </g>
    <defs>
        <linearGradient id="_Linear1" x1="0" y1="0" x2="1" y2="0" gradientUnits="userSpaceOnUse" gradientTransform="matrix(6.12017e-15,99.95,-99.95,6.12017e-15,72.97,11.05)"><stop offset="0" style="stop-color:white;stop-opacity:1"/><stop offset="1" style="stop-color:rgb(242,248,255);stop-opacity:1"/></linearGradient>
    </defs>
</svg>
