<?xml version="1.0" encoding="UTF-8" standalone="no"?>
<!DOCTYPE svg PUBLIC "-//W3C//DTD SVG 1.1//EN" "http://www.w3.org/Graphics/SVG/1.1/DTD/svg11.dtd">
<svg width="100%" height="100%" viewBox="0 0 201 201" version="1.1" xmlns="http://www.w3.org/2000/svg" xmlns:xlink="http://www.w3.org/1999/xlink" xml:space="preserve" xmlns:serif="http://www.serif.com/" style="fill-rule:evenodd;clip-rule:evenodd;stroke-linejoin:round;stroke-miterlimit:2;">
    <g transform="matrix(1,0,0,1,-689,-39)">
        <g transform="matrix(0.525965,0,0,0.305066,0,0)">
            <g id="Overcast" transform="matrix(3.80253,0,0,6.55596,-248.758,-1821.81)">
                <g id="overcastButton-overcastButton_Trace_" transform="matrix(1,0,0,1,387.236,286.615)">
                    <path d="M120.98,97.68L120.96,97.72C119.56,101.03 117.34,103.92 114.51,106.13L114.5,106.14C112.39,107.79 109.97,109.02 107.4,109.76L107.57,109.71C103.64,110.69 99.58,111.11 95.53,110.97L50.47,110.97C46.42,111.11 42.37,110.69 38.43,109.71L38.3,109.67C32.2,107.8 27.27,103.28 24.88,97.37L24.91,97.38C23.42,92.81 22.79,88 23.04,83.2L23.03,83.51L23.03,38.51L23.05,38.85C22.79,34.06 23.43,29.27 24.91,24.71L25.04,24.31C27.48,18.56 32.34,14.18 38.31,12.36L38.56,12.29C42.5,11.31 46.55,10.88 50.6,11.02L95.53,11.02C99.58,10.87 103.64,11.3 107.57,12.28L107.71,12.32C113.8,14.19 118.73,18.71 121.12,24.62L121.1,24.61C122.58,29.19 123.21,33.99 122.96,38.79L122.98,83.51L122.96,83.17C123.21,87.96 122.58,92.75 121.1,97.31L120.98,97.68Z" style="fill:url(#_Linear1);fill-rule:nonzero;"/>
                </g>
                <g id="overcastButton-overcastButtonovercastCanvasgroup" transform="matrix(1,0,0,1,387.231,286.615)">
                    <path d="M73,91.89C55.96,91.89 42.14,78.06 42.14,61.01C42.14,43.96 55.96,30.13 73,30.13C90.05,30.13 103.87,43.96 103.87,61.01L103.87,61.07C103.87,78.09 90.08,91.89 73.06,91.89L73,91.89ZM73,79.65L75.33,77.33L73,68.51L70.68,77.33L73,79.65ZM70.06,79.65L68.92,84.03L71.62,81.33L70.06,79.65ZM75.94,79.65L74.38,81.21L77.09,83.92L75.94,79.65ZM78.15,87.48L73,82.36L67.86,87.48L68.06,87.51C69.77,87.81 71.5,87.98 73.23,88.01L72.89,88C74.6,88.03 76.3,87.87 77.97,87.51L78.15,87.48ZM73,33.98L73.05,33.98C58.15,33.98 46.07,46.07 46.07,60.98C46.07,72.5 53.38,82.75 64.27,86.5L70.06,64.98C68.75,64.02 67.98,62.48 68.01,60.85L68.01,60.86C68.01,58.02 70.31,55.72 73.15,55.72C75.99,55.72 78.29,58.02 78.29,60.86C78.29,62.48 77.54,64 76.25,64.97L82.12,86.48L82.04,86.5C96.13,81.65 103.62,66.29 98.77,52.19C95.02,41.3 84.77,33.98 73.25,33.98L73,33.98ZM90.64,74.39C89.98,75.21 88.8,75.37 87.94,74.77L87.93,74.77C87.12,74.24 86.9,73.17 87.42,72.37C87.46,72.3 87.51,72.23 87.56,72.17L87.65,72.04C92.22,65.26 92.14,56.36 87.45,49.66L87.56,49.82C86.94,49.09 87.01,48 87.73,47.37C87.8,47.32 87.86,47.27 87.93,47.22L87.94,47.22C88.8,46.61 89.98,46.78 90.64,47.6L90.69,47.67C96.28,55.66 96.28,66.3 90.69,74.29L90.64,74.39ZM81.23,69.36L81.25,69.37C80.48,68.55 80.47,67.27 81.22,66.43L81.23,66.42C82.53,64.93 83.26,63.03 83.29,61.05L83.29,60.97C83.26,59 82.57,57.1 81.33,55.57L81.34,55.59C80.65,54.73 80.66,53.49 81.37,52.63L81.35,52.66C81.98,51.91 83.09,51.81 83.84,52.44C83.92,52.5 83.99,52.58 84.05,52.66L83.98,52.58C88.32,57.39 88.38,64.68 84.13,69.57L84.06,69.65C83.3,70.36 82.11,70.32 81.4,69.56C81.34,69.5 81.28,69.43 81.23,69.36ZM64.77,69.36C64.05,70.11 62.86,70.13 62.11,69.41C62.1,69.39 62.08,69.38 62.07,69.36L62.14,69.44C57.81,64.63 57.74,57.34 61.99,52.45L62.07,52.36C62.69,51.62 63.81,51.52 64.55,52.14C64.63,52.21 64.7,52.28 64.77,52.36L64.76,52.35C65.53,53.18 65.54,54.45 64.78,55.29L64.78,55.3C63.44,56.89 62.71,58.89 62.71,60.97L62.71,61.05C62.71,63.02 63.41,64.94 64.68,66.45L64.65,66.42C65.45,67.21 65.5,68.49 64.78,69.35L64.77,69.36ZM58.07,74.77C57.21,75.37 56.03,75.21 55.37,74.39L55.31,74.32C49.72,66.33 49.72,55.69 55.31,47.7L55.37,47.63C56.03,46.81 57.21,46.64 58.07,47.25L58.08,47.25C58.88,47.77 59.11,48.85 58.59,49.65C58.54,49.72 58.5,49.78 58.44,49.85L58.36,49.97C53.78,56.76 53.86,65.66 58.55,72.36L58.45,72.21C59.04,73.02 58.87,74.17 58.06,74.78L58.07,74.77Z" style="fill:white;fill-rule:nonzero;"/>
                </g>
            </g>
        </g>
    </g>
    <defs>
        <linearGradient id="_Linear1" x1="0" y1="0" x2="1" y2="0" gradientUnits="userSpaceOnUse" gradientTransform="matrix(6.11834e-15,99.92,-99.92,6.11834e-15,73,11.05)"><stop offset="0" style="stop-color:rgb(255,148,2);stop-opacity:1"/><stop offset="1" style="stop-color:rgb(255,97,60);stop-opacity:1"/></linearGradient>
    </defs>
</svg>
