<?xml version="1.0" encoding="UTF-8" standalone="no"?>
<!DOCTYPE svg PUBLIC "-//W3C//DTD SVG 1.1//EN" "http://www.w3.org/Graphics/SVG/1.1/DTD/svg11.dtd">
<svg width="100%" height="100%" viewBox="0 0 201 201" version="1.1" xmlns="http://www.w3.org/2000/svg" xmlns:xlink="http://www.w3.org/1999/xlink" xml:space="preserve" xmlns:serif="http://www.serif.com/" style="fill-rule:evenodd;clip-rule:evenodd;stroke-linejoin:round;stroke-miterlimit:2;">
    <g transform="matrix(1,0,0,1,-254,-256)">
        <g transform="matrix(0.525965,0,0,0.305066,0,0)">
            <g id="Pocketcasts" transform="matrix(3.80253,0,0,6.55596,3001.69,10.8823)">
                <g id="pocketCastsButton-pocketCastsButton_Trace_2" transform="matrix(1,0,0,1,-684.903,115.671)">
                    <path d="M120.98,97.68L120.96,97.72C119.56,101.03 117.34,103.92 114.51,106.13L114.5,106.14C112.39,107.79 109.97,109.02 107.4,109.76L107.57,109.71C103.64,110.69 99.58,111.11 95.53,110.97L50.47,110.97C46.42,111.11 42.37,110.69 38.43,109.71L38.3,109.67C32.2,107.8 27.27,103.28 24.88,97.37L24.91,97.38C23.42,92.81 22.79,88 23.04,83.2L23.03,83.51L23.03,38.51L23.05,38.85C22.79,34.06 23.43,29.27 24.91,24.71L25.04,24.31C27.48,18.56 32.34,14.18 38.31,12.36L38.56,12.29C42.5,11.31 46.55,10.88 50.6,11.02L95.53,11.02C99.58,10.87 103.64,11.3 107.57,12.28L107.71,12.32C113.8,14.19 118.73,18.71 121.12,24.62L121.1,24.61C122.58,29.19 123.21,33.99 122.96,38.79L122.98,83.51L122.96,83.17C123.21,87.96 122.58,92.75 121.1,97.31L120.98,97.68Z" style="fill:url(#_Linear1);fill-rule:nonzero;"/>
                </g>
                <g id="pocketCastsButton-pocketCastsButtonbezier2" transform="matrix(1,0,0,1,-685.408,115.671)">
                    <path d="M73,83.83C60.4,83.83 50.19,73.61 50.19,61.01C50.19,48.41 60.4,38.19 73,38.19C85.6,38.19 95.81,48.41 95.81,61.01L103.87,61.01C103.87,43.96 90.05,30.13 73,30.13C55.96,30.13 42.14,43.96 42.14,61.01C42.14,78.06 55.96,91.89 73,91.89L73,83.83Z" style="fill:white;fill-rule:nonzero;"/>
                </g>
                <g id="pocketCastsButton-pocketCastsButtonbezier3" transform="matrix(1,0,0,1,-685.408,115.671)">
                    <path d="M73,42.22C62.62,42.22 54.2,50.64 54.2,61.02C54.2,71.41 62.62,79.83 73,79.83L73,73.1C66.33,73.1 60.92,67.68 60.92,61.01C60.92,54.33 66.33,48.92 73,48.92C79.68,48.92 85.08,54.33 85.08,61.01L91.79,61.01C91.79,50.63 83.38,42.22 73,42.22Z" style="fill:white;fill-rule:nonzero;"/>
                </g>
            </g>
        </g>
    </g>
    <defs>
        <linearGradient id="_Linear1" x1="0" y1="0" x2="1" y2="0" gradientUnits="userSpaceOnUse" gradientTransform="matrix(6.11834e-15,99.92,-99.92,6.11834e-15,73,11.05)"><stop offset="0" style="stop-color:rgb(240,86,76);stop-opacity:1"/><stop offset="1" style="stop-color:rgb(225,78,80);stop-opacity:1"/></linearGradient>
    </defs>
</svg>
