<?xml version="1.0" encoding="UTF-8" standalone="no"?>
<!DOCTYPE svg PUBLIC "-//W3C//DTD SVG 1.1//EN" "http://www.w3.org/Graphics/SVG/1.1/DTD/svg11.dtd">
<svg width="100%" height="100%" viewBox="0 0 201 201" version="1.1" xmlns="http://www.w3.org/2000/svg" xmlns:xlink="http://www.w3.org/1999/xlink" xml:space="preserve" xmlns:serif="http://www.serif.com/" style="fill-rule:evenodd;clip-rule:evenodd;stroke-linejoin:round;stroke-miterlimit:2;">
    <g transform="matrix(1,0,0,1,-471,-41)">
        <g transform="matrix(0.525965,0,0,0.305066,0,0)">
            <g transform="matrix(3.80253,0,0,6.55596,809.393,62.7107)">
                <g id="Podcasts">
                    <g id="podcastAppButton-podcastAppButton_Groupe_2">
                        <path id="podcastAppButton-podcastAppButton_Trace_2" d="M120.98,97.68L120.96,97.72C119.56,101.03 117.34,103.92 114.51,106.13L114.5,106.14C112.39,107.79 109.98,109.02 107.4,109.76L107.57,109.71C103.64,110.69 99.59,111.11 95.53,110.97L50.48,110.97C46.42,111.11 42.37,110.69 38.43,109.71L38.3,109.67C32.2,107.8 27.27,103.28 24.88,97.37L24.91,97.38C23.43,92.81 22.79,88 23.05,83.2L23.03,83.51L23.03,38.54L23.04,38.8C22.79,34.01 23.42,29.22 24.9,24.66L25.03,24.31C27.52,18.44 32.53,14.01 38.65,12.25L38.54,12.29C42.47,11.3 46.53,10.88 50.58,11.02L95.53,11.02C99.59,10.87 103.64,11.3 107.57,12.28L107.71,12.32C113.8,14.19 118.73,18.71 121.12,24.62L121.1,24.62C122.58,29.19 123.22,33.99 122.96,38.79L122.98,83.53L122.99,83.85C123.16,88.65 122.44,93.43 120.88,97.96L120.98,97.68Z" style="fill:url(#_Linear1);fill-rule:nonzero;"/>
                        <path id="podcastAppButton-podcastAppButton_Trace_3" d="M120.98,97.68L120.96,97.72C119.56,101.03 117.34,103.92 114.51,106.13L114.5,106.14C112.39,107.79 109.98,109.02 107.4,109.76L107.57,109.71C103.64,110.69 99.59,111.11 95.53,110.97L50.48,110.97C46.42,111.11 42.37,110.69 38.43,109.71L38.3,109.67C32.2,107.8 27.27,103.28 24.88,97.37L24.91,97.38C23.43,92.81 22.79,88 23.05,83.2L23.03,83.51L23.03,38.54L23.04,38.8C22.79,34.01 23.42,29.22 24.9,24.66L25.03,24.31C27.52,18.44 32.53,14.01 38.65,12.25L38.54,12.29C42.47,11.3 46.53,10.88 50.58,11.02L95.53,11.02C99.59,10.87 103.64,11.3 107.57,12.28L107.71,12.32C113.8,14.19 118.73,18.71 121.12,24.62L121.1,24.62C122.58,29.19 123.22,33.99 122.96,38.79L122.98,83.53L122.99,83.85C123.16,88.65 122.44,93.43 120.88,97.96L120.98,97.68Z" style="fill:none;fill-rule:nonzero;"/>
                        <g id="podcastAppButton-podcastAppButton_Groupe_3">
                            <path id="podcastAppButton-podcastAppButtonbezier3" d="M80.28,68.12L80.22,68.06C78.23,66.29 75.61,65.36 72.94,65.5L73.02,65.5C70.35,65.36 67.74,66.28 65.76,68.05L65.74,68.08C64.95,68.86 64.48,69.89 64.4,71L64.41,70.83C64.18,73.42 64.23,76.04 64.55,78.63C64.81,81.51 65.31,85.71 65.96,89.89L65.98,90.04C66.27,92.04 66.69,94.01 67.25,95.95L67.14,95.56C68.09,97.9 70.48,99.32 72.99,99.06L73.03,99.05C75.54,99.36 77.96,97.97 78.95,95.66L78.88,95.92C79.43,94 79.85,92.04 80.13,90.06C80.81,85.74 81.31,81.66 81.58,78.58L81.58,78.52C81.91,75.9 81.95,73.26 81.72,70.64L81.75,71.02C81.63,69.9 81.1,68.85 80.25,68.1L80.28,68.12ZM64.78,54.04L64.78,54.1C64.78,58.61 68.46,62.27 73,62.27C77.54,62.27 81.22,58.61 81.22,54.1C81.22,49.59 77.54,45.93 73,45.93C68.46,45.93 64.78,49.59 64.78,54.1L64.78,54.04ZM72.88,21.78L73.12,21.78C53.52,22.12 37.92,38.18 38.26,57.65C38.51,72.02 47.52,84.8 61.02,89.95L61.17,90C61.42,90.09 61.69,89.96 61.77,89.71C61.79,89.65 61.8,89.58 61.79,89.51C61.62,88.3 61.44,87.1 61.29,85.92L61.29,85.91C61.23,85.5 60.96,85.15 60.58,84.98L60.35,84.88C44.8,78 37.81,59.9 44.73,44.46C51.66,29.01 69.87,22.06 85.41,28.94C100.96,35.82 107.95,53.92 101.03,69.36C97.86,76.44 92.1,82.06 84.92,85.09L85.18,84.98C84.8,85.15 84.53,85.5 84.47,85.91C84.33,87.1 84.15,88.33 83.97,89.51C83.83,89.74 83.91,90.05 84.15,90.18C84.39,90.32 84.69,90.24 84.83,90L84.98,89.95C103.28,82.97 112.41,62.57 105.39,44.4C100.21,30.98 87.35,22.03 72.88,21.78ZM72.35,37.88L72.48,37.88C83.04,37.51 91.9,45.72 92.27,56.21C92.46,61.71 90.25,67.02 86.2,70.78L86.21,70.76C85.89,71.06 85.72,71.48 85.75,71.92L85.76,72.09C85.83,73.5 85.82,74.91 85.72,76.32L85.75,75.9C85.73,76.16 85.93,76.38 86.19,76.39C86.3,76.4 86.4,76.37 86.48,76.31L86.41,76.37C97.24,69.11 100.1,54.5 92.79,43.74C85.48,32.97 70.78,30.13 59.95,37.39C49.12,44.65 46.26,59.26 53.57,70.02C55.26,72.52 57.43,74.68 59.95,76.37L59.87,76.31C60.1,76.44 60.39,76.37 60.52,76.14C60.56,76.07 60.58,75.98 60.58,75.9L60.6,76.18C60.51,74.84 60.49,73.51 60.56,72.17L60.58,71.87C60.6,71.44 60.43,71.02 60.1,70.73L60.15,70.77C52.43,63.61 52,51.58 59.21,43.9C62.59,40.3 67.25,38.14 72.2,37.89L72.35,37.88Z" style="fill:white;fill-rule:nonzero;"/>
                        </g>
                    </g>
                </g>
            </g>
        </g>
    </g>
    <defs>
        <linearGradient id="_Linear1" x1="0" y1="0" x2="1" y2="0" gradientUnits="userSpaceOnUse" gradientTransform="matrix(6.12017e-15,99.95,-99.95,6.12017e-15,72.97,11.05)"><stop offset="0" style="stop-color:rgb(244,82,255);stop-opacity:1"/><stop offset="1" style="stop-color:rgb(131,43,193);stop-opacity:1"/></linearGradient>
    </defs>
</svg>
