<?xml version="1.0" encoding="UTF-8" standalone="no"?>
<!DOCTYPE svg PUBLIC "-//W3C//DTD SVG 1.1//EN" "http://www.w3.org/Graphics/SVG/1.1/DTD/svg11.dtd">
<svg width="100%" height="100%" viewBox="0 0 201 201" version="1.1" xmlns="http://www.w3.org/2000/svg" xmlns:xlink="http://www.w3.org/1999/xlink" xml:space="preserve" xmlns:serif="http://www.serif.com/" style="fill-rule:evenodd;clip-rule:evenodd;stroke-linejoin:round;stroke-miterlimit:2;">
    <g transform="matrix(1,0,0,1,-254,-41)">
        <g transform="matrix(0.525965,0,0,0.305066,0,0)">
            <g id="RSS" transform="matrix(3.80253,0,0,6.55596,386.712,627.352)">
                <g id="rSSButton-rSSButtonbackground" transform="matrix(1,0,0,1,2.50449,-85.7045)">
                    <path d="M120.97,97.67L120.96,97.71C119.55,101.01 117.33,103.91 114.51,106.12L114.5,106.13C112.38,107.78 109.97,109.01 107.39,109.75L107.57,109.7C103.64,110.68 99.58,111.1 95.53,110.96L50.47,110.96C46.42,111.1 42.36,110.68 38.43,109.7L38.3,109.66C32.2,107.79 27.27,103.27 24.88,97.36L24.91,97.37C23.42,92.79 22.79,87.99 23.04,83.19L23.03,83.49L23.03,38.52L23.04,38.86C22.79,34.07 23.42,29.27 24.9,24.71L25.05,24.28C27.54,18.41 32.55,13.98 38.68,12.22L38.45,12.28C42.39,11.3 46.44,10.88 50.5,11.02L95.53,11.02C99.58,10.88 103.64,11.3 107.57,12.28L107.7,12.32C113.8,14.19 118.73,18.71 121.12,24.62L121.09,24.62C122.58,29.19 123.21,34 122.96,38.8L122.97,83.52L122.99,83.84C123.15,88.63 122.44,93.42 120.88,97.95L120.97,97.67Z" style="fill:url(#_Linear1);fill-rule:nonzero;"/>
                </g>
                <g id="rSSButton-rSSButtonlogo" transform="matrix(1,0,0,1,2.50449,-85.7045)">
                    <path d="M50.75,75.17L50.78,75.17C46.33,75.17 42.72,78.77 42.72,83.23C42.72,87.68 46.33,91.28 50.78,91.28C55.22,91.28 58.83,87.68 58.83,83.23L58.83,83.26C58.83,78.79 55.21,75.17 50.75,75.17ZM42.69,51.28L42.69,63.05L42.66,63.05C58.35,63.05 71.06,75.77 71.06,91.46L82.82,91.49L82.82,91.4C82.82,69.25 64.87,51.28 42.72,51.28L42.69,51.28ZM42.69,30.67L42.69,42.46L42.6,42.46C69.7,42.46 91.67,64.44 91.67,91.55L103.42,91.34L103.42,91.43C103.42,57.87 76.23,30.67 42.69,30.67Z" style="fill:white;fill-rule:nonzero;"/>
                </g>
            </g>
        </g>
    </g>
    <defs>
        <linearGradient id="_Linear1" x1="0" y1="0" x2="1" y2="0" gradientUnits="userSpaceOnUse" gradientTransform="matrix(6.1214e-15,99.97,-99.97,6.1214e-15,73,11.02)"><stop offset="0" style="stop-color:rgb(52,162,230);stop-opacity:1"/><stop offset="1" style="stop-color:rgb(86,86,86);stop-opacity:1"/></linearGradient>
    </defs>
</svg>
