<?xml version="1.0" encoding="UTF-8" standalone="no"?>
<!DOCTYPE svg PUBLIC "-//W3C//DTD SVG 1.1//EN" "http://www.w3.org/Graphics/SVG/1.1/DTD/svg11.dtd">
<svg width="100%" height="100%" viewBox="0 0 201 201" version="1.1" xmlns="http://www.w3.org/2000/svg" xmlns:xlink="http://www.w3.org/1999/xlink" xml:space="preserve" xmlns:serif="http://www.serif.com/" style="fill-rule:evenodd;clip-rule:evenodd;stroke-linecap:round;">
    <g transform="matrix(1,0,0,1,-471,-254)">
        <g transform="matrix(0.525965,0,0,0.305066,0,0)">
            <g transform="matrix(3.80253,0,0,6.55596,808.567,763.066)">
                <g id="Spotify">
                    <g id="podcastAppButton-podcastAppButton_Groupe_2">
                        <path id="podcastAppButton-podcastAppButton_Trace_2" d="M120.98,97.68L120.96,97.72C119.56,101.03 117.34,103.92 114.51,106.13L114.5,106.14C112.39,107.79 109.98,109.02 107.4,109.76L107.57,109.71C103.64,110.69 99.59,111.11 95.53,110.97L50.48,110.97C46.42,111.11 42.37,110.69 38.43,109.71L38.3,109.67C32.2,107.8 27.27,103.28 24.88,97.37L24.91,97.38C23.43,92.81 22.79,88 23.05,83.2L23.03,83.51L23.03,38.54L23.04,38.8C22.79,34.01 23.42,29.22 24.9,24.66L25.03,24.31C27.52,18.44 32.53,14.01 38.65,12.25L38.54,12.29C42.47,11.3 46.53,10.88 50.58,11.02L95.53,11.02C99.59,10.87 103.64,11.3 107.57,12.28L107.71,12.32C113.8,14.19 118.73,18.71 121.12,24.62L121.1,24.62C122.58,29.19 123.22,33.99 122.96,38.79L122.98,83.53L122.99,83.85C123.16,88.65 122.44,93.43 120.88,97.96L120.98,97.68Z" style="fill:url(#_Linear1);fill-rule:nonzero;"/>
                        <g transform="matrix(1.62465,0,0,1.62465,34.0099,22.0019)">
                            <circle cx="24" cy="24" r="19" style="fill:white;"/>
                        </g>
                        <g transform="matrix(1.62465,0,0,1.62465,34.0099,22.0019)">
                            <path d="M31.703,31.787C26.968,28.894 21.056,28.23 14.13,29.813" style="fill:none;fill-rule:nonzero;stroke:rgb(24,20,19);stroke-width:2.37px;"/>
                        </g>
                        <g transform="matrix(1.62465,0,0,1.62465,34.0099,22.0019)">
                            <path d="M33.776,26.457C28.291,23.085 20.109,22.124 13.638,24.088" style="fill:none;fill-rule:nonzero;stroke:rgb(24,20,19);stroke-width:2.96px;"/>
                        </g>
                        <g transform="matrix(1.62465,0,0,1.62465,34.0099,22.0019)">
                            <path d="M36.146,20.316C29.558,16.404 18.929,16.04 12.65,17.946" style="fill:none;fill-rule:nonzero;stroke:rgb(24,20,19);stroke-width:3.55px;"/>
                        </g>
                        <path id="podcastAppButton-podcastAppButton_Trace_3" d="M120.98,97.68L120.96,97.72C119.56,101.03 117.34,103.92 114.51,106.13L114.5,106.14C112.39,107.79 109.98,109.02 107.4,109.76L107.57,109.71C103.64,110.69 99.59,111.11 95.53,110.97L50.48,110.97C46.42,111.11 42.37,110.69 38.43,109.71L38.3,109.67C32.2,107.8 27.27,103.28 24.88,97.37L24.91,97.38C23.43,92.81 22.79,88 23.05,83.2L23.03,83.51L23.03,38.54L23.04,38.8C22.79,34.01 23.42,29.22 24.9,24.66L25.03,24.31C27.52,18.44 32.53,14.01 38.65,12.25L38.54,12.29C42.47,11.3 46.53,10.88 50.58,11.02L95.53,11.02C99.59,10.87 103.64,11.3 107.57,12.28L107.71,12.32C113.8,14.19 118.73,18.71 121.12,24.62L121.1,24.62C122.58,29.19 123.22,33.99 122.96,38.79L122.98,83.53L122.99,83.85C123.16,88.65 122.44,93.43 120.88,97.96L120.98,97.68Z" style="fill:none;fill-rule:nonzero;"/>
                    </g>
                </g>
            </g>
        </g>
    </g>
    <defs>
        <linearGradient id="_Linear1" x1="0" y1="0" x2="1" y2="0" gradientUnits="userSpaceOnUse" gradientTransform="matrix(6.12017e-15,99.95,-99.95,6.12017e-15,72.97,11.05)"><stop offset="0" style="stop-color:rgb(35,55,46);stop-opacity:1"/><stop offset="1" style="stop-color:black;stop-opacity:1"/></linearGradient>
    </defs>
</svg>
