<?xml version="1.0" encoding="UTF-8" standalone="no"?><!DOCTYPE svg PUBLIC "-//W3C//DTD SVG 1.1//EN" "http://www.w3.org/Graphics/SVG/1.1/DTD/svg11.dtd"><svg width="100%" height="100%" viewBox="0 0 7538 7538" version="1.1" xmlns="http://www.w3.org/2000/svg" xmlns:xlink="http://www.w3.org/1999/xlink" xml:space="preserve" xmlns:serif="http://www.serif.com/" style="fill-rule:evenodd;clip-rule:evenodd;stroke-linejoin:round;stroke-miterlimit:2;"><g id="Do-not-Disturb" serif:id="Do not Disturb"><path d="M7537.5,7537.5c-4.417,-14.083 4.958,-7537.5 0,-7537.5l-7537.5,0c-0.263,4.696 0,7537.5 0,7537.5c9.388,4.958 7537.5,0 7537.5,0Z" style="fill:#ddd;fill-opacity:0.6;"/></g><path d="M4381.57,2324.03c104.705,0 190.373,-85.176 190.373,-189.28c-0,-104.105 -85.668,-189.281 -190.373,-189.281c-104.706,0 -190.374,85.176 -190.374,189.281c0,104.104 85.668,189.28 190.374,189.28Zm2094.11,2631l0,-3937.04c0,-189.28 -114.224,-302.848 -304.597,-302.848l-3883.62,-0c-647.269,-0 -1142.24,492.129 -1142.24,1135.68l0,3785.61c0,643.554 494.971,1135.68 1142.24,1135.68l3883.62,-0c152.298,-0 304.597,-113.569 304.597,-302.849l0,-189.281c0,-75.712 -38.075,-151.424 -114.224,-227.137c-38.075,-189.28 -38.075,-719.266 0,-870.69c76.149,-37.856 114.224,-113.569 114.224,-227.137Zm-2474.85,-3577.4c525.906,-0 951.866,339.522 951.866,757.122c0,247.248 -151.108,463.737 -380.746,602.149l-0,154.973c-0,104.104 -85.668,189.281 -190.373,189.281l-761.494,-0c-104.705,-0 -190.373,-85.177 -190.373,-189.281l-0,-154.973c-229.638,-138.412 -380.747,-354.901 -380.747,-602.149c0,-417.6 425.961,-757.122 951.867,-757.122Zm-1370.69,1979.16l74.959,-173.901c20.228,-48.503 76.15,-69.797 124.933,-49.686l1169.61,498.044l1170.8,-498.044c48.783,-20.111 104.705,1.183 124.932,49.686l74.96,173.901c20.227,48.504 -1.19,104.105 -49.973,124.216l-836.453,357.267l836.453,356.084c48.783,20.111 70.2,75.712 49.973,124.215l-74.96,173.902c-20.227,48.503 -76.149,69.797 -124.932,49.686l-1169.61,-498.045l-1169.61,499.228c-48.783,20.111 -104.706,-1.183 -124.933,-49.686l-74.959,-173.902c-20.227,-48.503 1.19,-104.104 49.973,-124.215l837.642,-356.084l-838.832,-358.45c-48.783,-20.111 -70.2,-75.712 -49.973,-124.216Zm3045.97,2658.21l-3388.64,0c-228.448,0 -380.747,-151.424 -380.747,-378.561c0,-227.137 190.374,-378.561 380.747,-378.561l3388.64,0l0,757.122Zm-2056.03,-3690.97c104.706,0 190.374,-85.176 190.374,-189.28c-0,-104.105 -85.668,-189.281 -190.374,-189.281c-104.705,0 -190.373,85.176 -190.373,189.281c-0,104.104 85.668,189.28 190.373,189.28Z" style="fill-rule:nonzero;"/></svg>