<?xml version="1.0" encoding="UTF-8" standalone="no"?><!DOCTYPE svg PUBLIC "-//W3C//DTD SVG 1.1//EN" "http://www.w3.org/Graphics/SVG/1.1/DTD/svg11.dtd"><svg width="100%" height="100%" viewBox="0 0 7538 7538" version="1.1" xmlns="http://www.w3.org/2000/svg" xmlns:xlink="http://www.w3.org/1999/xlink" xml:space="preserve" xmlns:serif="http://www.serif.com/" style="fill-rule:evenodd;clip-rule:evenodd;stroke-linejoin:round;stroke-miterlimit:2;"><g id="Do-not-Disturb" serif:id="Do not Disturb"><path d="M7537.5,7537.5c-4.417,-14.083 4.958,-7537.5 0,-7537.5l-7537.5,0c-0.263,4.696 0,7537.5 0,7537.5c9.388,4.958 7537.5,0 7537.5,0Z" style="fill:#ddd;fill-opacity:0.6;"/></g><path d="M4912.34,1895.19c-0.213,-605.429 -491.17,-1096.04 -1096.6,-1095.83c-605.43,0.213 -1096.04,491.169 -1095.83,1096.6c0.213,605.429 491.17,1096.04 1096.6,1095.83c605.43,-0.213 1096.04,-491.169 1095.83,-1096.6Zm-1351.53,1657.36c-677.628,-414.496 -1775.02,-528.07 -2327.25,-559.278c-185.561,-10.44 -340.237,130.98 -340.174,309.458l0.895,2544.13c0.058,163.633 132.451,300.042 302.595,308.775c498.558,25.973 1507.22,121.423 2204.47,472.308c107.014,53.86 233.852,-19.608 233.811,-135.624l-0.988,-2808.93c-0.133,-53.327 -26.528,-102.19 -73.356,-130.835Zm2838.65,-561.096c-552.092,31.482 -1649.52,145.943 -2326.74,560.916c-46.807,28.678 -73.167,79.501 -73.148,132.827l0.987,2806.65c0.041,116.358 127.274,189.851 234.592,135.802c696.886,-351.033 1704.91,-447.193 2203.34,-473.517c170.138,-8.967 302.435,-145.469 302.377,-309.102l-0.895,-2544.36c-0.177,-178.477 -154.953,-319.788 -340.506,-309.218Z" style="fill-rule:nonzero;"/></svg>